<?xml version="1.0" encoding="utf-8"?>
<!-- Generator: Adobe Illustrator 26.5.0, SVG Export Plug-In . SVG Version: 6.00 Build 0)  -->
<svg version="1.1" id="Livello_1" xmlns="http://www.w3.org/2000/svg" xmlns:xlink="http://www.w3.org/1999/xlink" x="0px" y="0px"
	 viewBox="0 0 9726 2213" style="enable-background:new 0 0 9726 2213;" xml:space="preserve">
<style type="text/css">
	.st0{fill:#133C55;}
	.st1{fill:#FF5A5F;}
	.st2{display:none;}
	.st3{display:inline;fill:#133C55;}
	.st4{display:inline;fill:#FF5A5F;}
	.st5{display:inline;fill:#EEE0CB;}
</style>
<g>
	<g>
		<g>
			<path class="st0" d="M2592.65,1238.67c0-192.42,44.63-346.96,133.93-463.57c89.28-116.62,208.98-174.92,359.08-174.92
				c132.38,0,239.38,46.18,320.98,138.55V99.09h280.56v1773.45h-254.01l-13.85-129.32c-83.9,101.6-195.9,152.41-335.98,152.41
				c-146.25,0-264.6-58.89-355.04-176.65C2637.86,1601.21,2592.65,1441.11,2592.65,1238.67z M2873.22,1262.91
				c0,127.01,24.43,226.12,73.31,297.31c48.88,71.2,118.35,106.8,208.4,106.8c114.68,0,198.59-51.18,251.7-153.56V980.04
				c-51.58-100.05-134.71-150.09-249.4-150.09c-90.83,0-160.88,35.99-210.13,107.95
				C2897.84,1009.88,2873.22,1118.21,2873.22,1262.91z"/>
			<path class="st0" d="M4530.05,1895.63c-177.81,0-321.95-56-432.39-168c-110.47-111.99-165.68-261.11-165.68-447.4v-34.64
				c0-124.7,24.05-236.11,72.16-334.25c48.1-98.14,115.64-174.52,202.63-229.19c86.97-54.65,183.96-81.98,290.96-81.98
				c170.1,0,301.53,54.27,394.29,162.8c92.74,108.53,139.13,262.09,139.13,460.68v113.15h-816.29
				c8.46,103.16,42.9,184.73,103.33,244.77c60.42,60.04,136.42,90.06,228.03,90.06c128.54,0,233.23-51.95,314.05-155.87
				l151.25,144.32c-50.04,74.67-116.81,132.6-200.32,173.77C4727.67,1875.03,4633.96,1895.63,4530.05,1895.63z M4496.57,825.32
				c-76.98,0-139.13,26.95-186.46,80.82c-47.34,53.89-77.56,128.93-90.64,225.15h534.57v-20.78
				c-6.17-93.9-31.18-164.91-75.05-213.02C4635.12,849.39,4574.3,825.32,4496.57,825.32z"/>
			<path class="st0" d="M5509.14,623.27l8.08,144.32c92.37-111.6,213.6-167.42,363.7-167.42c260.16,0,392.56,148.94,397.18,446.82
				v825.53h-280.57v-809.37c0-79.27-17.14-137.97-51.38-176.08c-34.26-38.1-90.25-57.15-167.99-57.15
				c-113.15,0-197.44,51.2-252.85,153.56v889.04h-280.57V623.27H5509.14z"/>
			<path class="st0" d="M7004.33,1516.92l264.4-893.65h289.81l-432.97,1249.27h-243.61L6445.51,623.27h290.96L7004.33,1516.92z"/>
			<path class="st0" d="M8268.61,1895.63c-177.81,0-321.95-56-432.39-168c-110.47-111.99-165.68-261.11-165.68-447.4v-34.64
				c0-124.7,24.05-236.11,72.16-334.25c48.1-98.14,115.64-174.52,202.63-229.19c86.97-54.65,183.96-81.98,290.96-81.98
				c170.1,0,301.53,54.27,394.29,162.8c92.74,108.53,139.13,262.09,139.13,460.68v113.15h-816.29
				c8.46,103.16,42.9,184.73,103.33,244.77c60.42,60.04,136.42,90.06,228.03,90.06c128.54,0,233.23-51.95,314.05-155.87
				l151.25,144.32c-50.04,74.67-116.81,132.6-200.32,173.77C8466.23,1875.03,8372.53,1895.63,8268.61,1895.63z M8235.13,825.32
				c-76.98,0-139.13,26.95-186.46,80.82c-47.34,53.89-77.56,128.93-90.64,225.15h534.57v-20.78
				c-6.17-93.9-31.17-164.91-75.05-213.02C8373.68,849.39,8312.87,825.32,8235.13,825.32z"/>
			<path class="st0" d="M9641.42,879.59c-36.95-6.15-75.05-9.24-114.31-9.24c-128.55,0-215.15,49.27-259.78,147.79v854.4h-280.57
				V623.27h267.86l6.93,139.71c67.73-108.53,161.65-162.8,281.72-162.8c40.01,0,73.12,5.4,99.3,16.17L9641.42,879.59z"/>
		</g>
		<path class="st0" d="M1956.92,1109.94c76.13,0,135.1,67.3,124.37,142.67c-5.24,36.8-12.47,72.94-21.58,108.32
			c-11.5,44.83-26.08,88.47-43.44,130.66c-17.15,41.62-36.95,81.78-59.26,120.34c-20.15,34.86-42.39,68.4-66.44,100.4
			c-15.9,21.2-32.63,41.76-50.2,61.56c-27.75,31.58-57.45,61.28-89.03,89.03c-11.85,10.53-24.05,20.78-36.46,30.75
			c-39.46,31.65-81.43,60.38-125.5,85.9c-77.67,44.97-161.89,79.76-250.99,102.7c-80.18,20.64-164.33,31.65-250.99,31.65
			s-170.81-11.02-250.99-31.65c-89.1-22.94-173.32-57.73-250.99-102.7c-57.94-33.54-112.18-72.65-161.96-116.64
			c-31.58-27.75-61.28-57.45-89.03-89.03c-43.99-49.78-83.11-104.02-116.64-161.96c-44.97-77.67-79.76-161.89-102.7-250.99
			c-20.64-80.18-31.65-164.33-31.65-250.99c0-86.66,11.02-170.81,31.65-250.99c22.94-89.1,57.73-173.32,102.7-250.99
			c33.54-57.94,72.65-112.18,116.64-161.96c27.75-31.58,57.45-61.28,89.03-89.03c49.78-43.99,104.02-83.11,161.96-116.64
			c77.67-44.97,161.89-79.76,250.99-102.7c35.38-9.11,71.52-16.34,108.32-21.58c75.37-10.73,142.67,48.24,142.67,124.37v0
			c0,62.8-46.51,115.35-108.66,124.34c-49.14,7.11-96.75,18.97-142.33,35.08c-93.56,33.05-178.55,84.01-250.99,148.85
			c-20.85,18.62-40.65,38.42-59.26,59.26C461.31,680.4,410.34,765.38,377.3,858.95c-27.75,78.51-42.88,163.01-42.88,250.99
			c0,87.99,15.13,172.49,42.88,250.99c33.05,93.56,84.01,178.55,148.85,250.99c18.62,20.85,38.42,40.65,59.26,59.26
			c72.44,64.84,157.43,115.81,250.99,148.85c78.51,27.75,163.01,42.88,250.99,42.88s172.49-15.13,250.99-42.88
			c72.72-25.66,140.28-62.19,200.79-107.72c17.36-12.97,34.09-26.7,50.2-41.13c20.85-18.62,40.65-38.42,59.26-59.26
			c24.05-26.91,46.22-55.5,66.23-85.69c33.95-51.03,61.84-106.53,82.62-165.31c16.11-45.59,27.97-93.2,35.08-142.33
			C1841.57,1156.45,1894.12,1109.94,1956.92,1109.94L1956.92,1109.94z"/>
		<path class="st0" d="M1442.43,1109.94c86.53,0,147.24,85.57,118.44,167.16c-10.34,29.29-23.31,57.33-38.62,83.83
			c-28.66,49.5-65.54,93.7-108.76,130.66c-23.29,19.94-48.39,37.72-75.09,53.2c-73.83,42.67-159.59,67.14-250.99,67.14
			c-91.4,0-177.16-24.47-250.99-67.14c-76.2-44.13-139.72-107.65-183.85-183.85c-42.67-73.83-67.14-159.59-67.14-250.99
			c0-91.4,24.47-177.16,67.14-250.99c44.13-76.2,107.65-139.72,183.85-183.85c26.5-15.32,54.54-28.29,83.83-38.62
			c81.6-28.8,167.16,31.91,167.16,118.44v0.04c0,52.86-32.95,100.55-82.85,117.99c-103.17,36.07-175.61,137.61-167.52,254.8
			c8.54,123.76,108.81,224.02,232.57,232.57c117.19,8.09,218.73-64.36,254.8-167.52c17.45-49.9,65.13-82.85,117.99-82.85H1442.43z"
			/>
		<g>
			<rect x="1845.86" y="152.58" class="st1" width="196.68" height="196.68"/>
			<rect x="1257.21" y="446.87" class="st1" width="196.75" height="196.68"/>
			<rect x="1551.57" y="446.87" class="st1" width="196.68" height="196.68"/>
			<rect x="1845.86" y="446.87" class="st1" width="196.68" height="196.68"/>
			<rect x="1257.21" y="741.16" class="st1" width="196.75" height="196.68"/>
			<rect x="1551.57" y="741.16" class="st1" width="196.68" height="196.68"/>
			<rect x="1845.86" y="741.16" class="st1" width="196.68" height="196.68"/>
			<rect x="1551.57" y="152.58" class="st1" width="196.68" height="196.68"/>
			<rect x="1257.21" y="152.58" class="st1" width="196.75" height="196.68"/>
		</g>
	</g>
</g>
<g id="PALETTE_LEFT" class="st2">
	<rect x="4643.69" y="-1690.8" class="st3" width="221.7" height="280.63"/>
	<rect x="4643.69" y="-1410.17" class="st4" width="221.7" height="280.63"/>
	<rect x="4643.69" y="-1129.54" class="st5" width="221.7" height="280.63"/>
</g>
</svg>
