<?xml version="1.0" encoding="utf-8"?>
<!-- Generator: Adobe Illustrator 26.5.0, SVG Export Plug-In . SVG Version: 6.00 Build 0)  -->
<svg version="1.1" id="Livello_1" xmlns="http://www.w3.org/2000/svg" xmlns:xlink="http://www.w3.org/1999/xlink" x="0px" y="0px"
	 viewBox="0 0 3152 3152" style="enable-background:new 0 0 3152 3152;" xml:space="preserve">
<style type="text/css">
	.st0{fill:#133C55;}
	.st1{fill:#FF5A5F;}
	.st2{display:none;}
	.st3{display:inline;fill:#133C55;}
	.st4{display:inline;fill:#FF5A5F;}
	.st5{display:inline;fill:#EEE0CB;}
</style>
<g>
	<path class="st0" d="M2892.47,1569.36c114.69,0,203.52,101.38,187.35,214.92c-7.89,55.43-18.79,109.88-32.5,163.17
		c-17.33,67.53-39.28,133.28-65.43,196.82c-25.84,62.7-55.66,123.19-89.27,181.27c-30.35,52.51-63.85,103.03-100.09,151.24
		c-23.95,31.93-49.15,62.91-75.62,92.74c-41.8,47.58-86.54,92.32-134.12,134.12c-17.85,15.86-36.23,31.3-54.93,46.32
		c-59.44,47.68-122.67,90.95-189.04,129.39c-117,67.74-243.87,120.15-378.09,154.7c-120.78,31.09-247.54,47.68-378.09,47.68
		s-257.31-16.59-378.09-47.68c-134.22-34.55-261.09-86.96-378.09-154.7c-87.28-50.52-168.99-109.44-243.97-175.71
		c-47.58-41.8-92.32-86.54-134.12-134.12c-66.27-74.99-125.19-156.7-175.71-243.97c-67.74-117-120.15-243.87-154.7-378.09
		c-31.09-120.78-47.68-247.54-47.68-378.09s16.59-257.31,47.68-378.09c34.55-134.22,86.96-261.09,154.7-378.09
		c50.52-87.28,109.44-168.99,175.71-243.97c41.8-47.58,86.54-92.32,134.12-134.12c74.99-66.27,156.7-125.19,243.97-175.71
		c117-67.74,243.87-120.15,378.09-154.7c53.29-13.72,107.74-24.61,163.17-32.5c113.54-16.17,214.92,72.66,214.92,187.35v0
		c0,94.6-70.05,173.76-163.68,187.31c-74.02,10.71-145.74,28.57-214.41,52.85c-140.94,49.78-268.97,126.56-378.09,224.23
		c-31.4,28.04-61.23,57.87-89.27,89.27c-97.67,109.12-174.45,237.15-224.23,378.09c-41.8,118.26-64.59,245.55-64.59,378.09
		s22.79,259.83,64.59,378.09c49.78,140.94,126.55,268.97,224.23,378.09c28.04,31.4,57.87,61.23,89.27,89.27
		c109.12,97.67,237.15,174.45,378.09,224.23c118.26,41.8,245.55,64.59,378.09,64.59s259.83-22.79,378.09-64.59
		c109.54-38.65,211.31-93.68,302.47-162.26c26.15-19.53,51.36-40.22,75.62-61.96c31.4-28.04,61.23-57.87,89.27-89.27
		c36.23-40.54,69.63-83.6,99.77-129.08c51.15-76.88,93.16-160.48,124.45-249.01c24.27-68.67,42.14-140.39,52.85-214.41
		C2718.71,1639.42,2797.87,1569.36,2892.47,1569.36L2892.47,1569.36z"/>
	<path class="st0" d="M2117.44,1569.36c130.35,0,221.8,128.89,178.42,251.81c-15.57,44.12-35.11,86.35-58.18,126.28
		c-43.17,74.57-98.72,141.15-163.84,196.82c-35.08,30.04-72.89,56.82-113.11,80.13c-111.22,64.28-240.4,101.14-378.09,101.14
		s-266.87-36.86-378.09-101.14c-114.79-66.48-210.47-162.16-276.95-276.95c-64.28-111.22-101.14-240.4-101.14-378.09
		s36.86-266.87,101.14-378.09c66.48-114.79,162.16-210.47,276.95-276.95c39.92-23.07,82.16-42.61,126.28-58.18
		c122.92-43.39,251.81,48.07,251.81,178.42v0.06c0,79.63-49.64,151.46-124.81,177.75c-155.41,54.34-264.54,207.3-252.36,383.83
		c12.87,186.43,163.9,337.46,350.33,350.33c176.53,12.19,329.49-96.95,383.83-252.36c26.28-75.17,98.11-124.81,177.75-124.81
		H2117.44z"/>
	<g>
		<rect x="2725.17" y="127.22" class="st1" width="296.28" height="296.28"/>
		<rect x="1838.44" y="570.53" class="st1" width="296.38" height="296.28"/>
		<rect x="2281.86" y="570.53" class="st1" width="296.28" height="296.28"/>
		<rect x="2725.17" y="570.53" class="st1" width="296.28" height="296.28"/>
		<rect x="1838.44" y="1013.84" class="st1" width="296.38" height="296.28"/>
		<rect x="2281.86" y="1013.84" class="st1" width="296.28" height="296.28"/>
		<rect x="2725.17" y="1013.84" class="st1" width="296.28" height="296.28"/>
		<rect x="2281.86" y="127.22" class="st1" width="296.28" height="296.28"/>
		<rect x="1838.44" y="127.22" class="st1" width="296.38" height="296.28"/>
	</g>
</g>
<g id="PALETTE_LEFT" class="st2">
	<rect x="4032.42" y="235.69" class="st3" width="221.7" height="280.63"/>
	<rect x="4032.42" y="516.32" class="st4" width="221.7" height="280.63"/>
	<rect x="4032.42" y="796.95" class="st5" width="221.7" height="280.63"/>
</g>
</svg>
